<svg width="146" height="32" xmlns="http://www.w3.org/2000/svg" xmlns:xlink="http://www.w3.org/1999/xlink"><defs><path id="a" d="M23.842 21.067H.002V.033h23.84v21.034z"/><path id="c" d="M0 25.24V0h28.432v25.24z"/><path id="e" d="M0 32h145.94V0H0z"/></defs><g fill="none" fill-rule="evenodd"><g transform="translate(15.733 10.933)"><mask id="b" fill="#fff"><use xlink:href="#a"/></mask><path d="M15.895 8.377a1.59 1.59 0 1 1 0-3.178 1.59 1.59 0 0 1 0 3.178m-7.947 0a1.59 1.59 0 1 1 0-3.178 1.59 1.59 0 0 1 0 3.178m11.775 9.098c2.513-1.822 4.119-4.516 4.119-7.509 0-5.486-5.337-9.933-11.92-9.933C5.337.033.001 4.48.001 9.966S5.337 19.9 11.921 19.9c1.36 0 2.673-.195 3.89-.545a1.2 1.2 0 0 1 .35-.052c.23 0 .438.07.634.183l2.61 1.506a.448.448 0 0 0 .229.075c.22 0 .397-.178.397-.398 0-.098-.04-.196-.064-.29l-.537-2.004a.794.794 0 0 1 .292-.9" fill="#1AAD19" mask="url(#b)"/></g><mask id="d" fill="#fff"><use xlink:href="#c"/></mask><path d="M19.072 10.013a1.907 1.907 0 1 1 0-3.815 1.907 1.907 0 0 1 0 3.815m-9.536 0a1.907 1.907 0 1 1 0-3.814 1.907 1.907 0 0 1 0 3.814M14.304 0C6.404 0 0 5.337 0 11.92c0 3.592 1.927 6.825 4.942 9.01.243.173.4.456.4.777 0 .105-.022.202-.05.304l-.644 2.404c-.03.113-.077.23-.077.348 0 .264.214.477.477.477a.54.54 0 0 0 .276-.089l3.13-1.808c.237-.136.486-.22.76-.22.147 0 .288.023.421.063a16.928 16.928 0 0 0 5.455.635 9.187 9.187 0 0 1-.48-2.921c0-6.004 5.84-10.871 13.045-10.871.26 0 .52.008.777.02C27.354 4.356 21.44 0 14.304 0" fill="#1AAD19" mask="url(#d)"/><mask id="f" fill="#fff"><use xlink:href="#e"/></mask><path fill="#4D4D4D" mask="url(#f)" d="M82.142 12.805h13.634v-1.152H82.142zM82.142 16.741h13.634v-1.248H82.142zM83.738 26.31h10.443v-5.04H83.738v5.04zm-1.248 1.152h12.939V20.12h-12.94v7.343zM79.164 4.55c-1.216 4.288-2.944 8.064-5.183 11.327l.001.004.682 1.181a47.347 47.347 0 0 0 2.389-3.97v14.453h1.248V10.5a41.645 41.645 0 0 0 2.021-5.281l-1.158-.669zM89.055 7.716l.98-.564c-.193-.447-1.011-2.121-1.266-2.697l-1.152.665c.409.77.795 1.54 1.15 2.307.063.13.096.226.096.289h-8.065v1.248h16.418V7.716h-8.161zM103.647 7.861v2.5c0 6.087-.424 12.174-3.755 16.96l-.71-1.236c2.46-3.802 3.224-8.374 3.224-13.059V7.872"/><path d="M112.411 7.861l.98-.564c-.193-.447-1.01-2.121-1.266-2.697l-1.152.666c.409.77.795 1.539 1.15 2.307.063.13.096.225.096.288h-9.813v1.248h19.008V7.861h-9.003zM58.266 4.885h1.152v6.145h2.4V6.71h1.152v5.474h-8.353V6.709h1.152v4.321h2.497zM55.001 15.831h7.393V14.68h-7.393zM63.445 21.363l-1.915 1.643v-4.678h-6.24v1.824c.18 2.583-.458 4.404-1.912 5.465l.667 1.157c1.789-1.474 2.62-3.519 2.492-6.142V19.48h3.84v2.784c-.045.945-.092 1.26-.43 1.727l.721 1.248c.639-.513 1.758-1.47 3.355-2.875l-.578-1zM52.863 4.647c-1.192 2.434-2.629 4.44-4.31 6.016l.702 1.216a24.427 24.427 0 0 0 4.689-6.607l-1.081-.625zM52.697 10.934c-1.146 2.864-2.64 5.347-4.481 7.452l.667 1.156a46.939 46.939 0 0 0 2.181-2.75v10.753h1.153V14.871a32.757 32.757 0 0 0 1.602-3.292l-1.122-.645z" fill="#4D4D4D" mask="url(#f)"/><path d="M67.478 19.958c-.833-2.113-1.44-4.96-1.825-8.546.128-.384.288-.768.48-1.152h3.361c-.257 4.097-.929 7.33-2.016 9.698zm4.512-9.698V9.108h-5.473c.465-1.4 1.024-3.075 1.21-4.511l-1.21-.002c-.803 3.768-1.994 6.937-3.571 9.513l.729 1.262.538-1.077c.255-.447.447-.8.576-1.056.384 3.393 1.056 6.082 2.016 8.065-.915 1.587-2.302 3.203-4.147 4.847l.693 1.2c1.982-1.856 3.326-3.455 4.03-4.799.833 1.503 2.245 3.281 3.81 4.87l.703-1.216c-1.64-1.565-3.058-3.299-3.84-4.806 1.407-2.56 2.27-6.273 2.592-11.138h1.344zM123.521 15.902h22.42v-1.219h-22.42zM128.385 26.315h12.875V20.51h-12.875v5.805zm-1.219 1.219h15.277v-8.242h-15.277v8.242zM128.83 5.762c-.948 2.54-2.369 4.956-3.887 6.69l.861 1.094c1.716-2.095 3.166-4.54 4.129-7.136l-1.103-.648z" fill="#4D4D4D" mask="url(#f)"/><path d="M135.368 15.292V9.987h8.14l.012-1.242h-8.152V4.473h-1.219v4.272h-5.873a3.812 3.812 0 0 1-.388 1.242h6.261v5.305h1.22z" fill="#4D4D4D" mask="url(#f)"/></g></svg>